<?xml version="1.0" standalone="no"?>
<!DOCTYPE svg PUBLIC "-//W3C//DTD SVG 20010904//EN"
 "http://www.w3.org/TR/2001/REC-SVG-20010904/DTD/svg10.dtd">
<svg version="1.0" xmlns="http://www.w3.org/2000/svg"
 width="550.000000pt" height="550.000000pt" viewBox="0 0 550.000000 550.000000"
 preserveAspectRatio="xMidYMid meet">
<metadata>
Created by potrace 1.14, written by Peter Selinger 2001-2017
</metadata>
<g transform="translate(0.000000,550.000000) scale(0.100000,-0.100000)"
fill="#000000" stroke="none">
<path d="M1680 3781 c0 -17 17 -50 91 -178 19 -32 44 -76 71 -124 7 -13 15
-26 18 -29 3 -3 11 -16 18 -29 8 -13 23 -40 34 -60 12 -20 35 -61 51 -91 17
-30 45 -79 64 -108 18 -29 33 -55 33 -57 0 -3 18 -35 40 -71 22 -36 40 -70 40
-74 0 -5 3 -10 8 -12 4 -1 17 -21 28 -43 33 -61 141 -251 190 -332 24 -40 44
-77 44 -83 0 -5 5 -10 10 -10 6 0 10 -4 10 -9 0 -5 48 -92 106 -193 155 -267
180 -310 208 -361 14 -26 26 -37 39 -35 18 3 99 131 188 297 l30 56 -55 93
c-31 51 -65 109 -76 130 -11 20 -29 51 -39 67 -9 17 -32 57 -50 90 -18 33 -36
65 -41 70 -15 19 -110 191 -110 199 0 3 170 7 377 8 l377 3 56 95 c31 52 67
115 80 140 14 25 27 47 30 50 13 13 30 52 30 70 0 20 -5 20 -589 20 l-590 0
-33 57 c-18 32 -36 66 -40 75 -7 17 25 18 660 18 367 0 677 3 689 6 13 4 34
29 52 62 17 32 45 80 61 107 17 28 33 57 37 65 4 8 9 17 12 20 16 13 52 100
47 109 -5 8 -326 11 -1107 11 -1074 0 -1099 0 -1099 -19z"/>
<path d="M1472 3748 c-16 -24 -45 -72 -64 -108 -19 -36 -45 -82 -56 -102 -12
-21 -32 -55 -43 -75 -12 -21 -29 -49 -39 -63 -9 -14 -30 -50 -47 -80 -16 -30
-55 -99 -86 -153 -32 -54 -57 -102 -57 -107 0 -6 -4 -10 -8 -10 -5 0 -14 -16
-22 -35 -8 -19 -17 -35 -21 -35 -4 0 -9 -8 -12 -17 -4 -10 -17 -36 -30 -58
-48 -80 -197 -337 -197 -340 0 -2 -22 -40 -50 -84 -27 -45 -47 -88 -44 -96 5
-13 84 -15 598 -16 325 -1 597 -2 605 -3 8 0 29 -28 47 -61 l33 -60 -691 -5
-690 -5 -44 -75 c-24 -41 -51 -91 -61 -110 -9 -19 -19 -37 -22 -40 -4 -3 -12
-16 -19 -29 -8 -13 -23 -39 -33 -58 -38 -67 -111 -63 1091 -63 938 0 1089 2
1100 14 12 15 6 28 -69 159 -42 74 -61 108 -82 145 -12 20 -30 49 -40 64 -11
14 -19 29 -19 32 0 2 -29 55 -65 117 -36 61 -65 114 -65 116 0 2 -13 23 -28
46 -16 23 -32 49 -35 57 -21 49 -68 117 -88 127 -18 10 -122 13 -401 13 -208
0 -378 4 -378 8 0 4 14 29 30 55 17 26 30 49 30 51 0 4 65 114 97 165 l15 23
20 -28 c10 -16 23 -38 28 -49 5 -11 20 -38 33 -60 l24 -40 205 -3 c177 -2 207
0 212 13 5 15 -3 32 -58 125 -15 25 -29 53 -33 63 -3 9 -9 17 -14 17 -5 0 -9
4 -9 10 0 5 -14 33 -31 62 -47 78 -68 116 -107 188 -20 35 -56 98 -81 140 -25
41 -53 89 -61 105 -8 17 -17 32 -20 35 -3 3 -11 15 -17 28 -7 12 -19 32 -25
45 -7 12 -15 24 -18 27 -3 3 -11 17 -19 33 -20 37 -35 34 -69 -15z"/>
<path d="M4027 3766 c-9 -14 -25 -40 -36 -58 -10 -18 -35 -62 -56 -98 -21 -36
-47 -83 -59 -105 -11 -22 -23 -42 -26 -45 -10 -10 -41 -65 -47 -82 -3 -10 -9
-18 -14 -18 -5 0 -9 -5 -9 -10 0 -6 -18 -40 -40 -76 -22 -36 -40 -68 -40 -70
0 -3 -10 -21 -23 -42 -13 -20 -37 -62 -54 -92 -16 -30 -42 -75 -57 -100 -15
-25 -29 -53 -33 -62 -3 -10 -9 -18 -14 -18 -5 0 -9 -4 -9 -9 0 -5 -18 -39 -40
-75 -22 -36 -40 -68 -40 -72 0 -3 -8 -18 -19 -32 -19 -28 -58 -96 -95 -167
-12 -22 -23 -42 -26 -45 -5 -5 -12 -17 -52 -89 -11 -20 -24 -40 -28 -46 -4 -5
-18 -28 -30 -50 -54 -95 -71 -125 -119 -208 -28 -49 -51 -91 -51 -93 0 -3 -14
-25 -31 -50 -17 -25 -29 -54 -27 -67 l3 -22 1100 0 c1046 0 1100 1 1103 18 2
10 -22 60 -52 113 -31 52 -56 97 -56 100 0 3 -13 24 -28 47 -16 23 -32 49 -35
57 -4 8 -20 38 -37 65 -16 28 -46 80 -67 118 l-37 67 -213 0 c-176 0 -213 -2
-213 -14 0 -8 18 -44 40 -81 23 -36 45 -77 50 -91 l10 -24 -470 0 -470 0 12
23 c7 12 15 24 18 27 3 3 11 16 18 29 8 13 22 38 32 55 10 17 44 76 75 131 32
55 66 115 76 133 19 32 45 77 71 123 7 13 15 26 18 29 3 3 14 21 24 40 10 19
44 77 74 129 l55 93 18 -23 c10 -13 19 -30 19 -36 0 -7 3 -13 8 -13 4 0 13
-15 21 -32 8 -18 17 -35 20 -38 3 -3 17 -25 30 -50 50 -94 39 -90 255 -90 105
0 198 4 206 10 16 10 14 15 -57 138 -24 41 -43 76 -43 79 0 3 -8 17 -19 31
-10 15 -28 44 -40 65 -28 49 -57 99 -80 140 -10 17 -54 93 -96 167 -42 74 -85
149 -95 166 -10 17 -24 42 -32 55 -7 13 -16 26 -19 29 -3 3 -8 12 -12 20 -20
46 -67 115 -80 118 -8 2 -21 -8 -30 -22z"/>
</g>
</svg>
